<svg id="Capa_1" enable-background="new 0 0 510 510" height="512" viewBox="0 0 510 510" width="512" xmlns="http://www.w3.org/2000/svg" xmlns:xlink="http://www.w3.org/1999/xlink"><linearGradient id="lg1"><stop offset="0" stop-color="#f8f6f7"/><stop offset=".1788" stop-color="#f8f6f7"/><stop offset="1" stop-color="#e7e6f5"/></linearGradient><linearGradient id="SVGID_1_" gradientUnits="userSpaceOnUse" x1="41.628" x2="485.669" xlink:href="#lg1" y1="255" y2="255"/><linearGradient id="SVGID_2_" gradientUnits="userSpaceOnUse" x1="-486" x2="770.97" y1="255" y2="255"><stop offset="0" stop-color="#f8f6f7"/><stop offset="1" stop-color="#d1ceeb"/></linearGradient><linearGradient id="SVGID_3_" gradientUnits="userSpaceOnUse" x1="329.613" x2="460.529" xlink:href="#lg1" y1="60.741" y2="60.741"/><linearGradient id="lg2"><stop offset="0" stop-color="#fe93bb"/><stop offset=".5595" stop-color="#925cb4"/><stop offset="1" stop-color="#5b3374"/></linearGradient><linearGradient id="SVGID_4_" gradientUnits="userSpaceOnUse" x1="38.001" x2="540.051" xlink:href="#lg2" y1="367.822" y2="367.822"/><linearGradient id="SVGID_5_" gradientUnits="userSpaceOnUse" x1="188" x2="407.009" xlink:href="#lg2" y1="367.822" y2="367.822"/><linearGradient id="SVGID_6_" gradientUnits="userSpaceOnUse" x1="142" x2="419.651" xlink:href="#lg2" y1="199.272" y2="199.272"/><linearGradient id="SVGID_8_" gradientUnits="userSpaceOnUse" x1="203" x2="337.034" xlink:href="#lg2" y1="136.195" y2="136.195"/><g><g><path d="m75.103 493.024v-476.048c0-9.376 7.601-16.976 16.976-16.976h285.189c31.827 0 57.628 25.801 57.628 57.628v435.396c0 9.376-7.6 16.976-16.976 16.976h-325.841c-9.375 0-16.976-7.6-16.976-16.976z" fill="url(#SVGID_1_)"/><path d="m377.269 0h-81.03v129.37c0 9.376 7.601 16.976 16.976 16.976h39.896c22.839 0 41.353 18.514 41.353 41.353v245.634h-319.361v31.174h302.2c9.478 0 17.162 7.684 17.162 17.162v11.355c0 9.376-7.6 16.976-16.976 16.976h40.432c9.376 0 16.976-7.6 16.976-16.976v-435.396c0-31.827-25.801-57.628-57.628-57.628z" fill="url(#SVGID_2_)"/><path d="m377.269 0h-56.166v104.505c0 9.376 7.6 16.976 16.976 16.976h96.817v-63.853c.001-31.827-25.8-57.628-57.627-57.628z" fill="url(#SVGID_3_)"/></g><path d="m451.749 439.643h-393.498c-11.183 0-20.249-9.066-20.249-20.249v-103.145c0-11.183 9.066-20.249 20.249-20.249h393.499c11.183 0 20.249 9.066 20.249 20.249v103.145c0 11.183-9.066 20.249-20.25 20.249z" fill="url(#SVGID_4_)"/><path d="m451.749 296h-40.432c11.183 0 20.25 9.066 20.25 20.249v103.145c0 11.183-9.066 20.249-20.25 20.249h40.432c11.183 0 20.249-9.066 20.249-20.249v-103.145c.001-11.183-9.065-20.249-20.249-20.249z" fill="url(#SVGID_5_)"/><g fill="#fff"><path d="m190.601 337.751c-7.032 0-11.104 3.948-11.104 12.336v32.692c0 8.389 4.071 12.337 11.227 12.337 9.869 0 10.486-7.525 10.856-12.337.37-4.564 4.564-5.798 9.499-5.798 6.662 0 9.746 1.727 9.746 9.129 0 16.408-13.323 25.784-30.965 25.784-16.161 0-29.608-7.896-29.608-29.115v-32.692c0-21.219 13.447-29.115 29.608-29.115 17.642 0 30.965 8.883 30.965 24.55 0 7.402-3.084 9.129-9.622 9.129-5.182 0-9.376-1.357-9.623-5.798-.123-3.206-.493-11.102-10.979-11.102z"/><path d="m267.584 386.975c0-14.927-39.107-12.336-39.107-41.205 0-18.505 16.161-25.537 31.582-25.537 6.539 0 24.55 1.234 24.55 10.856 0 3.331-2.22 10.116-7.648 10.116-4.441 0-6.785-4.688-16.901-4.688-8.759 0-12.337 3.578-12.337 7.402 0 12.337 39.107 9.993 39.107 41.082 0 17.765-12.953 27.388-30.842 27.388-16.161 0-29.731-7.896-29.731-16.038 0-4.194 3.701-10.363 8.39-10.363 5.798 0 9.499 9.129 20.972 9.129 5.673 0 11.965-2.221 11.965-8.142z"/><path d="m333.34 386.975c0-14.927-39.107-12.336-39.107-41.205 0-18.505 16.161-25.537 31.582-25.537 6.539 0 24.55 1.234 24.55 10.856 0 3.331-2.22 10.116-7.648 10.116-4.441 0-6.785-4.688-16.901-4.688-8.759 0-12.337 3.578-12.337 7.402 0 12.337 39.107 9.993 39.107 41.082 0 17.765-12.953 27.388-30.842 27.388-16.161 0-29.731-7.896-29.731-16.038 0-4.194 3.701-10.363 8.39-10.363 5.798 0 9.499 9.129 20.972 9.129 5.673 0 11.965-2.221 11.965-8.142z"/></g><g fill="url(#SVGID_6_)"><path d="m206.062 176.205v-18.277c0-3.795 3.088-6.883 6.883-6.883 6.904 0 12.5-5.596 12.5-12.5 0-6.903-5.596-12.5-12.5-12.5-17.581 0-31.883 14.303-31.883 31.883v15.546l-12.782 12.783c-3.477 3.477-5.392 8.099-5.392 13.016s1.915 9.539 5.391 13.015l12.783 12.783v15.546c0 17.581 14.303 31.883 31.883 31.883 6.904 0 12.5-5.597 12.5-12.5s-5.596-12.5-12.5-12.5c-3.795 0-6.883-3.088-6.883-6.883v-18.277c0-4.917-1.915-9.539-5.391-13.015l-10.052-10.052 10.05-10.05c3.477-3.477 5.393-8.1 5.393-13.018z"/><path d="m341.721 186.257-12.783-12.784v-15.546c0-17.581-14.303-31.883-31.883-31.883-6.904 0-12.5 5.597-12.5 12.5 0 6.904 5.596 12.5 12.5 12.5 3.795 0 6.883 3.088 6.883 6.883v18.277c0 4.918 1.916 9.541 5.391 13.015l10.052 10.052-10.052 10.052c-3.476 3.476-5.391 8.099-5.391 13.015v18.277c0 3.795-3.088 6.883-6.883 6.883-6.904 0-12.5 5.597-12.5 12.5s5.596 12.5 12.5 12.5c17.581 0 31.883-14.303 31.883-31.883v-15.545l12.782-12.782c3.477-3.477 5.392-8.099 5.392-13.016s-1.915-9.539-5.391-13.015z"/></g><path d="m313.215 146.346h13.536c-4.645-11.869-16.201-20.302-29.696-20.302-.275 0-.545.024-.816.041v3.284c0 9.376 7.601 16.977 16.976 16.977z" fill="url(#SVGID_8_)"/></g></svg>